<?xml version="1.0" standalone="no"?><!DOCTYPE svg PUBLIC "-//W3C//DTD SVG 1.1//EN" "http://www.w3.org/Graphics/SVG/1.1/DTD/svg11.dtd"><svg t="1750332426910" class="icon" viewBox="0 0 1069 1024" version="1.1" xmlns="http://www.w3.org/2000/svg" p-id="1890" xmlns:xlink="http://www.w3.org/1999/xlink" width="534.5" height="512"><path d="M199.07094759 470.67306668a33.65333333 33.65333333 0 1 1 33.65333334 33.65333332 33.65333333 33.65333333 0 0 1-33.65333334-33.65333335z m134.61546669-3e-8a33.65333333 33.65333333 0 1 1 33.65333329 33.65333335 33.65333333 33.65333333 0 0 1-33.65333329-33.65333335zM199.07094759 807.21066668a33.65333333 33.65333333 0 1 1 33.65333334 33.65333331 33.65333333 33.65333333 0 0 1-33.65333334-33.65333334z m134.61546669-3e-8a33.65333333 33.65333333 0 1 1 33.65333329 33.65333334 33.65333333 33.65333333 0 0 1-33.65333329-33.65333334z m673.07520001-370.19093332a67.30666668 67.30666668 0 0 0-67.30666665-67.30773333h-807.69066669a67.30666668 67.30666668 0 0 0-67.30773332 67.30666667v134.61546666a67.30666668 67.30666668 0 0 0 67.30666664 67.30773334h538.46079999v67.30666665H131.76428095A67.30666668 67.30666668 0 0 0 64.4554809 773.55733333V908.17066667a67.30666668 67.30666668 0 0 0 67.30666673 67.30773334h538.46079999v67.30773331H131.76428095A134.61546667 134.61546667 0 0 1-2.85118573 908.17173333V773.55733333a133.60533333 133.60533333 0 0 1 46.44266668-100.96106666A133.60533333 133.60533333 0 0 1-2.85118573 571.63413333V437.01973333a133.60533333 133.60533333 0 0 1 46.44266668-100.96213335A133.60533333 133.60533333 0 0 1-2.85118573 235.09760001V100.48106666A134.61546667 134.61546667 0 0 1 131.76428095-34.13333333h807.69066668a134.61546667 134.61546667 0 0 1 134.61439999 134.61546666v134.61439999a133.60533333 133.60533333 0 0 1-46.44266667 100.96106666 133.60533333 133.60533333 0 0 1 46.44266667 100.96213335h-67.30666665z m-1e-8-336.5376a67.30666668 67.30666668 0 0 0-67.30666664-67.30773332h-807.69066669A67.30666668 67.30666668 0 0 0 64.4554809 100.48v134.61546667a67.30666668 67.30666668 0 0 0 67.30666673 67.30773333h807.69066668a67.30666668 67.30666668 0 0 0 67.30773331-67.30666668V100.48106666z m-168.26880002 67.30666667H501.95521426a33.65333333 33.65333333 0 0 1 0-67.30666667H838.49281428a33.65333333 33.65333333 0 0 1-2e-8 67.30666667z m-471.15306667 0a33.65333333 33.65333333 0 1 1 33.65333337-33.65333333 33.65333333 33.65333333 0 0 1-33.65333339 33.65333333z m-134.61439996 0a33.65333333 33.65333333 0 1 1 33.65333332-33.65333333 33.65333333 33.65333333 0 0 1-33.65333332 33.65333333z m471.15306665 336.53866667H501.95521426a33.65333333 33.65333333 0 0 1 0-67.30773334H703.87948095a33.65333333 33.65333333 0 0 1 0 67.30666667zM468.30188096 807.21066668a33.65333333 33.65333333 0 0 1 33.6533333-33.65333335H703.87948095a33.65333333 33.65333333 0 0 1 0 67.30666666H501.95521426a33.65333333 33.65333333 0 0 1-33.65333331-33.65333334z m359.15306667-314.32533335l309.61386667 77.06666666-143.904 39.77813335a391.05706667 391.05706667 0 0 1 70.94399999 126.94293333C1177.85708094 998.768 750.65601428 1058.13333333 750.65601428 1058.13333333s228.10453333-59.904 153.52853334-255.02826666a258.192 258.192 0 0 0-62.79786669-110.65386667l132.25920003-68.65386667s0-1.74933333 0.47039998-4.1056l-135.42293335 70.33599999c0.80853333 0.53866667 1.8176 1.8848 2.69333334 2.49066667l-45.43359999 23.62560001a50.0768 50.0768 0 0 1 1.68319999-4.77866667l-47.11466665 24.3648z" fill="#80829B" p-id="1891"></path></svg>