<?xml version="1.0" standalone="no"?><!DOCTYPE svg PUBLIC "-//W3C//DTD SVG 1.1//EN" "http://www.w3.org/Graphics/SVG/1.1/DTD/svg11.dtd"><svg t="1750332442711" class="icon" viewBox="0 0 1029 1024" version="1.1" xmlns="http://www.w3.org/2000/svg" p-id="2037" xmlns:xlink="http://www.w3.org/1999/xlink" width="514.5" height="512"><path d="M898.04800001 847.36s-0.512-0.512-2e-8 0c-3.584 1.02400001-6.656 2.048-9.72799999 3.58400001-3.07200001 1.02400001-6.144 2.55999999-9.728 3.58399999-3.07200001 1.02400001-6.144 2.048-9.728 3.07200001-0.512 0-0.512 0-1.024 0.51199999-3.07200001 1.02400001-6.144 2.048-9.728 3.07200001-0.512 0-0.512 0-1.02400001 0.51199999-6.656 2.048-13.824 4.096-20.48000001 5.63200001h-1.02399998c-3.584 1.02400001-6.656 1.53600001-10.24 2.55999999-0.512 0-1.02400001 0-1.536 0.512-3.584 0.512-6.656 1.53600001-10.24 2.048h-1.024c-3.584 0.512-7.16800001 1.53600001-10.75200001 2.048h-0.51199999l-10.75200001 1.536h-1.53599999l-10.752 1.53600002h-2.048c-3.584 0.512-7.16800001 1.02400001-11.26400001 1.02399998h-1.02399999c-3.584 0.512-7.16800001 0.512-10.752 1.02400001h-1.536c-4.608 0.512-8.704 0.512-13.31200002 0.51199999h-1.02399998c-7.68 45.568-47.616 86.016-108.032 114.688 26.624 4.096 54.784 6.656 83.968 6.656 161.792 0 293.37600001-69.632 293.37600001-155.13600001v-102.91199999h-2.04800002c-8.192 43.52-48.12800001 77.82399999-106.496 103.936z m108.54399998-365.05600001v-4.09599998c0-81.408-117.75999998-147.968-267.77599999-154.62400001v309.248c13.824-0.512 27.136-1.53600001 40.96-3.584 128.00000001-15.36000001 223.744-74.75200001 226.81599999-146.94400001z" fill="" p-id="2038"></path><path d="M898.04800001 663.552s-0.512 0-2e-8 0c-3.584 1.02400001-6.656 2.048-9.72799999 3.07200001-3.07200001 1.02400001-6.144 2.55999999-9.728 3.58399999-3.07200001 1.02400001-6.144 2.048-9.728 3.07199999-0.512 0-0.512 0-1.024 0.51200001-3.07200001 1.02400001-6.144 2.048-9.728 3.07200001-0.512 0-0.512 0-1.02400001 0.51199998-6.656 2.048-13.824 4.096-20.48000001 5.632h-1.02399998c-4.096 1.02400001-7.68 2.048-11.776 2.56000001-3.584 0.512-6.656 1.53600001-10.24 2.048h-1.024c-3.584 0.512-7.16800001 1.53600001-10.75200001 2.048h-0.51199999l-10.75200001 1.53599999h-1.53599999l-10.752 1.53600001h-2.048c-3.584 0.512-7.16800001 1.02400001-11.26400001 1.024h-1.02399999c-3.584 0.512-7.16800001 0.512-10.752 1.024h-1.536c-3.584 0-7.68 0.512-11.26400001 0.51199999h-1.53599999v120.83200002C888.83200001 809.47200001 1006.59200001 742.91199999 1006.59200001 661.504V558.59199999h-2.04800002c-8.192 44.544-48.12800001 80.89600001-106.496 104.96000001z m-536.06400003-78.336c183.29600002 0 332.288-78.84800002 332.28800001-176.128V292.352h-2.04799998c-9.728 48.64-55.296 90.112-121.34400001 117.248h-0.51200001c-3.584 1.53600001-6.656 3.07200001-10.24 4.096-3.584 1.53600001-7.16800001 2.55999999-10.75199999 4.096h-0.512c-4.096 1.53600001-8.192 2.55999999-12.28800001 4.096-3.584 1.02400001-7.16800001 2.55999999-10.75199999 3.58400001-0.512 0-0.512 0-1.02400001 0.51199999-7.68 2.048-15.36000001 4.608-23.03999999 6.144l-1.02400001 0.512c-4.608 1.02400001-8.704 2.048-13.312 3.072-4.096 1.02400001-7.68 1.53600001-11.77599999 2.55999999h-1.024c-4.096 0.512-8.192 1.53600001-12.288 2.04800001h-0.51200001c-4.096 0.512-8.192 1.53600001-12.288 2.048-0.512 0-1.53600001 0-2.048 0.51200001l-12.288 1.53599999h-2.04800001c-4.096 0.512-8.192 1.02400001-12.79999998 1.536h-1.024c-4.096 0.512-8.192 0.512-12.288 1.024h-1.53599999c-5.12000001 0.512-10.24 0.512-14.84800001 1.02399999-4.096 0-8.704 0.512-12.80000001 0.51200001h-30.72c-5.12000001 0-10.24-0.512-14.84799999-0.51200001-4.096 0-8.192-0.512-12.8-0.51199998h-1.53600001c-4.096-0.512-8.192-0.512-12.28799999-1.02400001h-1.02399999c-4.096-0.512-8.192-1.02400001-12.80000002-1.53600001h-2.048l-12.288-1.53599998c-0.512 0-1.02400001 0-2.048-0.512-4.096-0.512-8.192-1.02400001-12.28799998-2.04800001h-0.51200001c-4.096-0.512-8.192-1.53600001-12.288-2.048h-1.024c-4.096-0.512-7.68-1.53600001-11.776-2.56-4.608-1.02400001-8.704-2.048-13.31200001-3.07200002-0.512 0-0.512 0-1.02399999-0.51199998-7.68-2.048-15.36000001-4.096-23.55200001-6.14400001-0.512 0-0.512 0-1.02399999-0.51199999-3.584-1.02400001-7.16800001-2.048-10.752-3.584-0.512 0-1.02400001-0.512-1.024-0.512-3.584-1.02400001-7.16800001-2.55999999-10.752-3.584h-0.512c-3.584-1.53600001-7.16800001-2.55999999-11.264-4.09599999-3.584-1.53600001-6.656-2.55999999-10.24-4.09600001h-0.512c-66.048-27.136-111.61600001-68.60799999-121.344-117.248h-2.048V410.112c-0.512 96.76799999 148.48000001 175.10400001 331.77599998 175.104z" fill="" p-id="2039"></path><path d="M361.98400001 793.60000002c183.29600002 0 332.288-78.84800002 332.28799998-176.12800003v-118.272h-2.04799998c-9.728 50.688-55.296 89.08799999-121.34400001 118.272h-0.51200001c-3.584 1.53600001-6.656 3.07200001-10.24 4.09600002-3.584 1.53600001-7.16800001 2.55999999-10.75199999 4.096h-0.512c-3.584 1.53600001-7.16800001 2.55999999-10.752 3.58399999-0.512 0-1.02400001 0.512-1.024 0.51200003-3.584 1.02400001-7.16800001 2.55999999-10.75200001 3.58399997-0.512 0-0.512 0-1.02399998 0.51200001-7.68 2.048-15.36000001 4.608-23.04000001 6.144-0.512 0-0.512 0-1.024 0.51199999-3.584 1.02400001-7.68 2.048-11.776 2.56l-1.536 0.512c-4.096 1.02400001-7.68 1.53600001-11.77600001 2.56000001h-1.02399999c-4.096 0.512-8.192 1.53600001-12.28800001 2.048h-0.51199999c-4.096 0.512-8.192 1.53600001-12.288 2.048-0.512 0-1.53600001 0-2.04799999 0.51199999-4.608 0.512-9.21600001 1.02400001-14.33600001 2.048-4.096 0.512-8.192 1.02400001-12.80000001 1.53600001h-1.02399999c-4.096 0.512-8.192 0.512-12.288 1.02399999h-1.536c-4.096 0.512-8.192 0.512-12.8 0.512h-2.56c-4.096 0-8.192 0.512-12.80000001 0.51200001h-30.72c-4.096 0-8.704 0-12.79999999-0.51200001h-2.55999999c-4.096 0-8.704-0.512-12.80000001-0.512h-1.536c-4.096-0.512-8.192-0.512-12.288-1.02399999h-1.02400001c-4.096-0.512-8.192-1.02400001-12.79999999-1.53600001-4.608-0.512-9.21600001-1.02400001-14.336-2.048-0.512 0-1.02400001 0-2.048-0.51199999-4.096-0.512-8.192-1.02400001-12.288-2.048h-0.512c-4.096-0.512-8.192-1.53600001-12.28800001-2.048h-1.024c-4.608-1.02400001-9.21600001-1.53600001-13.31199999-2.56000001s-7.68-1.53600001-11.776-2.56c-0.512 0-0.512 0-1.024-0.512-7.68-2.048-15.36000001-4.096-23.552-6.144-0.512 0-0.512 0-1.024-0.51199999-3.584-1.02400001-7.16800001-2.048-10.75200001-3.58400001-0.512 0-1.02400001-0.512-1.024-0.51199997-3.584-1.02400001-7.16800001-2.55999999-10.75199999-3.58400003h-0.51200002c-3.584-1.53600001-7.16800001-2.55999999-10.75199998-4.096-3.584-1.53600001-6.656-2.048-10.24-3.58399999l-0.512-0.51200001c-66.048-29.184-111.61600001-67.584-121.344-118.272h-2.048v118.272c-0.512 96.76799999 148.48000001 175.616 331.77599998 175.61599999z" fill="" p-id="2040"></path><path d="M694.27200001 825.856v-119.296h-2.048c-9.728 48.64-55.296 90.112-121.34400001 119.296h-0.51200001c-3.584 1.53600001-6.656 3.07200001-10.24 4.096-3.584 1.53600001-7.16800001 2.55999999-10.75199999 4.096h-0.512c-4.096 1.53600001-8.192 2.55999999-12.28799999 4.09600001-3.584 1.02400001-7.16800001 2.55999999-10.75200001 3.58399999-0.512 0-0.512 0-1.02399999 0.512-7.68 2.048-15.36000001 4.608-23.04000001 6.144-0.512 0-0.512 0-1.02400001 0.51199999-3.584 1.02400001-7.68 2.048-11.776 2.56000001-0.512 0-1.02400001 0-1.53599998 0.512-4.096 1.02400001-7.68 1.53600001-11.77600001 2.56h-1.024c-4.096 0.512-8.192 1.53600001-12.288 2.048h-0.51200001c-4.096 0.512-8.192 1.53600001-12.288 2.048-0.512 0-1.53600001 0-2.048 0.51200002l-12.288 1.53599998h-2.04799997c-4.096 0.512-8.192 1.02400001-12.80000002 1.536h-1.024c-4.096 0.512-8.192 0.512-12.288 1.02400001h-1.53600001c-4.096 0.512-8.192 0.512-12.79999999 0.51199997h-2.56000001c-4.096 0-8.192 0.512-12.79999999 0.51200002h-30.71999999c-4.096 0-8.704 0-12.80000001-0.51200002h-2.56c-4.096 0-8.192-0.512-12.80000001-0.51199997h-1.53599998c-4.096-0.512-8.192-0.512-12.28800002-1.02400001h-1.02399999c-4.096-0.512-8.192-1.02400001-12.79999999-1.536h-2.04800001l-12.288-1.53599998c-0.512 0-1.02400001 0-2.048-0.51200002-4.096-0.512-8.192-1.02400001-12.288-2.048h-0.512c-4.096-0.512-8.192-1.53600001-12.288-2.048h-1.02399999c-4.608-1.02400001-9.21600001-2.048-13.31200001-2.56-4.096-1.02400001-7.68-1.53600001-11.776-2.56-0.512 0-0.512 0-1.02400001-0.51200001-7.68-2.048-15.36000001-4.096-23.55199999-6.14399998-0.512 0-0.512 0-1.02399999-0.51200001-3.584-1.02400001-7.16800001-2.048-10.75200001-3.58399999-0.512 0-1.02400001-0.512-1.02399999-0.512-3.584-1.02400001-7.16800001-2.55999999-10.75200003-3.584-3.584-1.53600001-7.68-2.55999999-11.26399998-4.096-3.584-1.53600001-6.656-2.55999999-10.24-4.09600002h-0.51199999c-66.048-29.184-111.61600001-70.144-121.34400002-119.296h-2.04799997v119.296c0 97.28000001 148.992 176.128 332.28799999 176.128 183.29600002-0.512 332.288-79.36 332.288-176.63999999z m-407.55200001-454.14400001c24.064 3.07200001 49.15200001 4.608 75.26400001 4.60800001s50.688-1.53600001 75.26399998-4.60800001c144.89600001-17.92 253.44000001-85.50400001 257.02400002-166.91199999v-4.608c0-97.28000001-148.992-176.128-332.288-176.128-183.29600002 0-332.288 78.84800002-332.28799999 176.128v4.608c4.096 81.408 112.64 149.504 257.02399998 166.91199999z" fill="" p-id="2041"></path></svg>