<svg width="16" height="17" viewBox="0 0 16 17" fill="none" xmlns="http://www.w3.org/2000/svg">
<path d="M6.19031 2.9818C6.58963 2.65596 7.17938 2.67983 7.55164 3.05211C7.92313 3.42443 7.9466 4.01343 7.62098 4.41246L7.55164 4.48961L4.45496 7.58531H14.0009C14.5619 7.58571 15.0172 8.04097 15.0175 8.60191C15.0172 9.16298 14.5619 9.61909 14.0009 9.61949H4.45496L7.55164 12.7152L7.62098 12.7923C7.94648 13.1916 7.92377 13.7815 7.55164 14.1537C7.17949 14.5258 6.5896 14.5485 6.19031 14.223L6.11317 14.1537L1.28211 9.32164C0.885074 8.92462 0.88421 8.28023 1.28114 7.88316L6.11317 3.05211L6.19031 2.9818Z" fill="#508D21"/>
</svg>
