<svg width="16" height="17" viewBox="0 0 16 17" fill="none" xmlns="http://www.w3.org/2000/svg">
<path fill-rule="evenodd" clip-rule="evenodd" d="M7.99992 7.78726C9.84084 7.78726 11.3333 6.32804 11.3333 4.528C11.3333 2.72796 9.84084 1.26874 7.99992 1.26874C6.15897 1.26874 4.66659 2.72796 4.66659 4.528C4.66659 6.32804 6.15897 7.78726 7.99992 7.78726Z" fill="#4E5969"/>
<path fill-rule="evenodd" clip-rule="evenodd" d="M14.3178 11.8442C14.5534 12.1118 14.6666 12.4588 14.6666 12.8119V14.9724C14.6666 15.6021 14.3178 15.9354 13.6666 15.9354H2.33325C1.66659 15.9354 1.33325 15.6021 1.33325 14.9724V12.8119C1.33325 12.4588 1.44639 12.1118 1.68198 11.8442C3.21021 10.1085 5.4738 9.00948 7.99992 9.00948C10.526 9.00948 12.7897 10.1085 14.3178 11.8442Z" fill="#4E5969"/>
</svg>
