<svg width="16" height="17" viewBox="0 0 16 17" fill="none" xmlns="http://www.w3.org/2000/svg">
<g clip-path="url(#clip0_339904_57771)">
<path d="M8.00195 16.4272C7.15922 16.4272 6.31648 16.4526 5.47508 16.4219C4.29231 16.3792 3.28689 15.9259 2.50683 15.0152C1.98812 14.4099 1.69876 13.7086 1.60142 12.9153C1.46008 11.7673 1.45074 10.6246 1.58409 9.47263C1.7281 8.22864 2.26014 7.22865 3.3069 6.54599C3.66693 6.31 3.8056 6.06866 3.79094 5.64067C3.76293 4.88868 3.84027 4.14469 4.10963 3.42469C4.65501 1.96471 6.16047 0.738056 8.03262 0.751389C9.88478 0.764723 11.3582 1.99271 11.8916 3.41936C12.169 4.16202 12.225 4.92734 12.217 5.702C12.213 6.06467 12.301 6.294 12.637 6.50599C13.7158 7.18599 14.2651 8.19931 14.4185 9.4673C14.5625 10.6646 14.5532 11.8526 14.3892 13.0419C14.1385 14.8686 12.6677 16.1259 11.2516 16.3152C10.3128 16.4406 9.35407 16.4192 8.40332 16.4619C8.26998 16.4672 8.13663 16.4619 8.00462 16.4619C8.00462 16.4499 8.00462 16.4379 8.00462 16.4259L8.00195 16.4272ZM7.97795 5.82067C8.68601 5.82067 9.39407 5.82067 10.1021 5.82067C10.2608 5.82067 10.4368 5.82334 10.4315 5.60067C10.4208 5.15934 10.4582 4.70335 10.3608 4.28068C10.0981 3.1447 8.9367 2.35671 7.75793 2.48604C6.47649 2.62737 5.58309 3.65936 5.56975 4.75935C5.56708 5.00334 5.57642 5.24734 5.56175 5.48867C5.54575 5.758 5.67909 5.826 5.92178 5.822C6.60717 5.81267 7.2939 5.81934 7.97929 5.81934L7.97795 5.82067ZM8.82469 11.0139C8.82469 11.0139 8.82202 11.0139 8.82069 11.0139C8.82069 10.7939 8.84202 10.5713 8.81669 10.3553C8.76335 9.89396 8.47666 9.64329 8.02996 9.63129C7.55125 9.61796 7.21922 9.87796 7.18322 10.3606C7.14988 10.7979 7.15388 11.2406 7.18322 11.6793C7.21522 12.1473 7.56858 12.4579 8.00329 12.4566C8.43932 12.4553 8.77402 12.1459 8.82202 11.6739C8.84469 11.4566 8.82602 11.2353 8.82602 11.0153L8.82469 11.0139Z" fill="#4E5969"/>
</g>
<defs>
<clipPath id="clip0_339904_57771">
<rect width="16" height="16" fill="white" transform="translate(0 0.602051)"/>
</clipPath>
</defs>
</svg>
