<?xml version="1.0" standalone="no"?><!DOCTYPE svg PUBLIC "-//W3C//DTD SVG 1.1//EN" "http://www.w3.org/Graphics/SVG/1.1/DTD/svg11.dtd"><svg t="1750300254438" class="icon" viewBox="0 0 1024 1024" version="1.1" xmlns="http://www.w3.org/2000/svg" p-id="1765" xmlns:xlink="http://www.w3.org/1999/xlink" width="512" height="512"><path d="M227.1744 106.752v83.456c0 23.808 23.808 47.616 53.6064 53.6064H322.56c29.7984 0 53.6576-23.8592 53.6576-53.6576v-83.456h119.1936v83.456c0 23.8592 23.808 47.7184 53.6064 53.6576h41.728c29.7984 0 53.6576-23.8592 53.6576-53.6576v-83.456h119.1936c35.7376 0 59.5968 23.8592 59.5968 59.648v321.792a239.1552 239.1552 0 0 0-89.3952-17.8688 292.5056 292.5056 0 0 0-292.0448 292.0448c0 65.536 23.8592 131.072 65.536 178.7904H107.9296c-35.7376 0-59.5968-23.8592-59.5968-59.5968V166.3488c0-35.7888 23.8592-59.5968 59.5968-59.5968h119.2448zM394.0352 716.8h-214.528a12.8 12.8 0 0 0-11.9808 11.9296v41.728a12.8 12.8 0 0 0 11.9296 11.8784h214.528a12.8 12.8 0 0 0 11.9808-11.8784v-41.728A12.8 12.8 0 0 0 394.0352 716.8z m0-180.9408h-214.528a12.8 12.8 0 0 0-11.9808 11.8784v41.728a12.8 12.8 0 0 0 11.9296 11.9296h214.528a12.8 12.8 0 0 0 11.9808-11.9296v-41.728a12.8 12.8 0 0 0-11.9296-11.8784z m297.984-178.7904H179.5072a12.8 12.8 0 0 0-11.9808 11.8784v35.7888a12.8 12.8 0 0 0 11.9296 11.9296h512.512a12.8 12.8 0 0 0 11.9808-11.9296v-35.7888a12.8 12.8 0 0 0-11.9296-11.8784z" fill="#3584FF" p-id="1766"></path><path d="M322.5088 17.3568h-41.728c-5.9392 0-11.9296 0-11.9296 5.9392v166.912c0 5.9392 5.9904 5.9392 5.9904 5.9392h41.728c5.9392 0 5.9392-5.9904 5.9392-5.9904V23.296c5.9392-5.9392 5.9392-5.9392 0-5.9392z m268.1856 0h-41.728c-5.9392 0-5.9392 5.9392-5.9392 5.9392v166.912c0 5.9392 5.9392 5.9392 5.9392 5.9392h41.728c5.9392 0 5.9392-5.9904 5.9392-5.9904V23.296c0-5.9392 0-5.9392-5.9392-5.9392zM733.696 517.9392a239.104 239.104 0 0 1 89.4464 17.92c89.3952 35.7376 154.9312 119.1936 154.9312 226.4576 0 131.072-107.264 244.3264-244.3264 244.3264-65.536 0-125.184-23.808-166.912-65.536-47.616-47.6672-77.4656-107.264-77.4656-178.7904 0-131.072 107.264-244.3776 244.3776-244.3776zM716.8 614.4a25.6 25.6 0 0 0-25.6 25.6v153.6l0.4096 4.608a25.6 25.6 0 0 0 25.1904 20.992h102.4l4.608-0.4096A25.6 25.6 0 0 0 819.2 768H742.4v-128l-0.4096-4.608A25.6 25.6 0 0 0 716.8 614.4z" fill="#3584FF" p-id="1767"></path></svg>