<?xml version="1.0" standalone="no"?><!DOCTYPE svg PUBLIC "-//W3C//DTD SVG 1.1//EN" "http://www.w3.org/Graphics/SVG/1.1/DTD/svg11.dtd"><svg t="1750332459467" class="icon" viewBox="0 0 1024 1024" version="1.1" xmlns="http://www.w3.org/2000/svg" p-id="2333" xmlns:xlink="http://www.w3.org/1999/xlink" width="512" height="512"><path d="M183.66646613 440.63220622l183.90156744 0 0 288.60545707c0 19.29004032 15.63881131 34.92885163 34.92885162 34.92885162 19.29120427 0 34.92885163-15.63881131 34.92885163-34.92885162l0-323.5343087c0-19.29120427-15.63764736-34.92885163-34.92885163-34.92885162L260.59144078 370.77450297l247.16703289-282.75603911L763.49355235 370.43802226 620.20725305 370.43802226c-19.29004032 0-34.92885163 15.63881131-34.92885163 34.92885163l0 323.87079054c0 19.29004032 15.63881131 34.92885163 34.92885163 34.92885162s34.92885163-15.63881131 34.92885162-34.92885162L655.13610467 440.29572437l187.10570781 0c13.8131968 0 26.32820395-8.14075107 31.92962731-20.76636615 5.60025941-12.62678016 3.23324701-27.36791893-6.03919816-37.60672995L533.18900622 12.02725433c-6.69236793-7.39094528-16.23958755-11.53117867-26.19663815-11.48227812-9.97102251 0.08732217-19.42975602 4.43247161-25.99172324 11.93984569L157.3685339 382.71551261c-9.01862969 10.31681821-11.17141106 24.95317106-5.50595129 37.42859264S169.96504235 440.63220622 183.66646613 440.63220622z" p-id="2334"></path><path d="M182.44744989 872.80455794l661.88194474 0c19.29004032 0 34.92885163-15.63881131 34.92885163-34.92885163s-15.63881131-34.92885163-34.92885163-34.92885162L182.44744989 802.94685469c-19.29004032 0-34.92885163 15.63881131-34.92885163 34.92885162S163.15740957 872.80455794 182.44744989 872.80455794z" p-id="2335"></path><path d="M844.32939349 949.73651741L182.44744989 949.73651741c-19.29004032 0-34.92885163 15.63881131-34.92885163 34.92885162s15.63881131 34.92885163 34.92885163 34.92885163l661.88194474 0c19.29004032 0 34.92885163-15.63881131 34.92885163-34.92885163S863.6205989 949.73651741 844.32939349 949.73651741z" p-id="2336"></path></svg>